<?xml version="1.0" encoding="utf-8"?>
<!-- Generator: Adobe Illustrator 16.0.0, SVG Export Plug-In . SVG Version: 6.00 Build 0)  -->
<!DOCTYPE svg PUBLIC "-//W3C//DTD SVG 1.1//EN" "http://www.w3.org/Graphics/SVG/1.1/DTD/svg11.dtd">
<svg version="1.1" id="Layer_1" xmlns="http://www.w3.org/2000/svg" xmlns:xlink="http://www.w3.org/1999/xlink" x="0px" y="0px"
	 width="512px" height="512px" viewBox="0 0 512 512" enable-background="new 0 0 512 512" xml:space="preserve">
<path d="M416,0H160c-35.313,0-64,28.656-64,64H64c-17.688,0-32,14.313-32,32v64c0,17.688,14.313,32,32,32c-17.688,0-32,14.313-32,32
	v64c0,17.688,14.313,32,32,32c-17.688,0-32,14.313-32,32v64c0,17.688,14.313,32,32,32h32c0,35.344,28.688,64,64,64h256
	c35.375,0,64-28.656,64-64V64C480,28.656,451.375,0,416,0z M96,416H64v-64h32V416z M96,288H64v-64h32V288z M96,160H64V96h32V160z
	 M357.375,316.594c-38.125,38.125-90,59.25-143.875,58.688c-0.063,0-8.688-1.938-11.688-5l-17-16.938
	c-6.188-6.25-9-18.188-6.25-26.5l1.25-3.625c2.75-8.313,12-17.063,20.438-19.375l31.375-8.563c8.5-2.313,20.625,0.813,26.813,7.063
	l11.375,11.313C311,302.531,343.313,270.219,354.5,229l-11.375-11.344c-6.188-6.219-9.313-18.344-7-26.844l8.563-31.344
	c2.313-8.469,11-17.688,19.375-20.5l3.563-1.188c8.375-2.781,20.313,0.031,26.5,6.25l17,16.969c3,3.031,4.875,11.906,4.875,12.188
	C416.5,226.906,395.375,278.625,357.375,316.594z"/>
</svg>
